<svg fill="none" height="32" viewBox="0 0 32 32" width="32" xmlns="http://www.w3.org/2000/svg"><g fill="#212121"><path d="m9.59997 20.02 2.49003 2.49c.33.33.33.86 0 1.2-.2098.2097-.5044.2861-.7759.2293-.2643.0564-.5505-.0185-.7568-.2248l-2.3143-2.3028c-.322-.322-.32399-.8383-.00596-1.1627.04007-.0829.09438-.1605.16293-.229.33-.33.87-.33 1.2 0z"/><path d="m24.2 2.34375c.4275 0 .7767.3353.7989.75726.5496-.22031 1.2086-.12025 1.671.32902l1.73 1.69c.4832.46931.5852 1.16727.3391 1.73882.4365.00613.7885.36192.7885.79991 0 .44183-.3582.8-.8.8-.4257 0-.7737-.33247-.7986-.75191l-.664.45771c.3103.11003.5326.40616.5326.75421 0 .44183-.3582.8-.8.8s-.8-.35817-.8-.8l.0002-.01858-.0578.03984c-.28.19-.66.16-.9-.08l-.0473-.04632-7.2828 8.21589c.6845 1.188 1.0535 2.5377 1.0602 3.9404v.0032c.5093.0407.91.4669.91.9868 0 .5467-.4432.99-.99.99-.0566 0-.1121-.0048-.1661-.0139-.2749 1.0762-.7701 2.065-1.4345 2.9154.2029.1813.3306.445.3306.7385 0 .5467-.4432.99-.99.99-.2948 0-.5594-.1289-.7408-.3333-.8951.6944-1.9422 1.2018-3.0824 1.4632.0281.0917.0432.1891.0432.2901 0 .5468-.4432.99-.99.99s-.99-.4432-.99-.99c0-.0308.0014-.0613.0042-.0914-1.61744-.0308-3.15353-.5398-4.44694-1.4642l-.61768.4782c-.16836.1263-.38934.1158-.53666-.0315l-1.1575-1.1576c-.1368-.1473-.15784-.3788-.03157-.5366l.48085-.621c-.92336-1.2979-1.43684-2.8394-1.46362-4.462-.03646.004-.07353.0061-.11108.0061-.54676 0-.99-.4432-.99-.99 0-.5467.44324-.99.99-.99.10849 0 .2129.0175.31058.0497.25551-1.1179.75094-2.1639 1.46239-3.0766-.18094-.1794-.293-.4281-.293-.7031 0-.5467.44324-.99.99-.99.27588 0 .5254.1129.70493.2949.86299-.6699 1.84511-1.151 2.89445-1.4187-.01274-.0634-.01943-.129-.01943-.1962 0-.5468.44323-.99.98998-.99.53 0 .9628.4165.9888.9401l.0113-.0001c1.4377 0 2.8156.3772 4.0214 1.0877l7.9985-7.41858-.04-.03909c-.25-.24-.29-.62-.1-.9l.0704-.10729c-.0134.00066-.0268.00099-.0403.00099-.4418 0-.8-.35817-.8-.8s.3582-.8.8-.8c.3426 0 .6348.2153.7489.51797l.4275-.65226c-.4025-.04179-.7164-.38209-.7164-.79569 0-.44183.3582-.8.8-.8zm-16.39326 24.03245c.94151.5622 2.04062.8838 3.21326.8838 3.47 0 6.28-2.81 6.28-6.28 0-.9336-.2039-1.8206-.5708-2.6186l-1.0092 1.1386c-.31.35-.85.36-1.18.04l-1.98-1.93c-.33-.33-.32-.86.02-1.18l1.1877-1.1017c-.8283-.403-1.7607-.6283-2.7477-.6283-3.47002 0-6.28002 2.81-6.28002 6.28 0 1.1761.3235 2.2783.88882 3.2216l.80163-1.0353c.15784-.1999.44195-.2104.61032-.0421l1.84148 1.8415c.16836.1684.15784.4525-.04209.6103zm19.89436-20.54084-1.7279-1.68806-.0008-.00074c-.2526-.24446-.6641-.19909-.8569.09281l-1.2387 1.88968 1.8936 1.85112 1.8583-1.28094c.2905-.2054.3176-.62569.0745-.86193z"/></g></svg>