<svg fill="none" height="32" viewBox="0 0 32 32" width="32" xmlns="http://www.w3.org/2000/svg"><g fill="#212121"><path d="m13.7354 19.4963-1.53-1.53c-.23-.23-.61-.23-.85 0-.23.23-.23.61 0 .85l1.53 1.53c.23.23.61.23.85 0s.24-.61 0-.85z"/><path d="m10.1954 19.9862 1.53 1.53c.23.23.23.61 0 .85-.24.23-.62.23-.85 0l-1.53005-1.53c-.23-.24-.23-.62 0-.85.24-.23.62-.23.85005 0z"/><path d="m27.4853 2.41627c-.15-.35-.55-.51-.9-.36s-.51.55-.36.9c.07.16.19.27.34.34.13.06.24.15.3.28l.1604.36795-.934.43057-.1563-.35855c-.06-.13-.05-.27-.01-.41s.04-.31-.02-.47c-.15-.35-.55-.51-.9-.36s-.51.55-.36.9c.07.16.19.27.34.34.13.06.24.15.3.28l.1634.3749-.9425.43447-.161-.3694c-.06-.13-.06-.27-.01-.41.05-.15.05-.31-.02-.47-.15-.35-.55-.51-.9-.36s-.51.55-.36.9c.07.16.19.27.34.34.13.06.24.15.3.28l.1681.38575-.3781.1743c-.4214.23412-.5183.78394-.2333 1.15672l-.0767-.07673-8.5583 8.55825c-.4703-1.1981-.2289-2.6161.7283-3.5882.6-.61.63-1.59.03-2.20001-.6-.61-1.59-.61-2.19-.01-.93.93001-1.52 2.08001-1.76 3.29001-.27 1.36-1.42 2.35-2.79998 2.48-1.66.15-3.27.86-4.53 2.13-2.83 2.86-2.79 7.57.1 10.37 2.85 2.77 7.40998 2.74 10.22998-.08 1.25-1.26 1.96-2.88 2.1-4.53.12-1.37 1.13-2.5 2.49-2.77.55-.11 1.09-.3 1.61-.56.76-.38 1.07-1.31.69-2.07s-1.31-1.07-2.07-.69c-.8774.4421-1.8796.4678-2.7551.115l8.5617-8.56167c.3424.2934.8732.24295 1.1434-.13337l1.08-1.81c.12-.2.36-.29.58-.2.57.22 1.24.1 1.68-.38.54-.58.55-1.49.02-2.07-.5011-.54929-1.2065-.57853-1.8925-.29356l-.1575-.34643c-.06-.13-.05-.27-.01-.41.06-.15.06-.32-.01-.48zm-14.28 12.78003c.3059.1762.5259.4727.6042.8257l-.1642.1643c-.25.25-.25.65 0 .89l.99.9899c.244.2441.6309.2499.8724.0176.2905.0785.7348.1416 1.0236.1826.0833.0119.154.0219.204.0299.025.005.0475.0075.07.01s.045.005.07.01l.0165.0019c.1965.022.7528.0844 1.4035-.0419.0414-.0074.0842-.0161.1278-.025.3671-.0744.7945-.1611.9822.375.07.18.01.39-.25.56-.15.1-.52.24-.69.28-.82.19-1.4.52-1.94 1.11-.72.68-1.16 1.5-1.32 2.39-.12.68-.24 1.35-.52 1.97-.3.64-.7 1.22-1.21 1.73-.58.59-1.26 1.03-2.01 1.33-.7.28-1.51003-.05-1.78003-.75-.06-.15-.09-.32-.09-.48.00284-.2524.06278-.5354.12577-.8327.15911-.7511.33766-1.5939-.33577-2.2673l-2.25-2.25c-1-1-1.02-2.63-.03-3.65l.02-.02c.79-.8 1.83-1.21 2.92003-1.25.65-.03 1.21-.36 1.52-.87.25-.41.71-.63 1.18-.58.16.02.32.07.46.15zm-3.83998 9.57c.1.1.1.26-.01.35l-1.06 1.06c-.1.0999-.26.0999-.36 0l-2.41-2.41c-.1-.1-.1-.26 0-.3601l1.07-1.0499c.1-.1.26-.1.36 0z"/></g></svg>