<svg viewBox="0 0 32 32" xmlns="http://www.w3.org/2000/svg"><path d="m26.59375 3.0625c-.105469 0-.207031.050781-.3125.15625l-.75.75-.3125-.3125-.4375.40625.34375.34375-.4375.40625-.3125-.3125-.4375.4375.3125.3125-.71875.75c-.214844.214844-.214844.410156 0 .625l-4.1875 4.1875c-.933594-.746094-1.929687-1.3125-2.875-1.59375-1.757812-.519531-3.320312-.144531-4.53125 1.0625-.535156.535156-.863281 1.1875-1 1.96875-.21875 1.265625-1.335937 2.253906-2.65625 2.34375-1.441406.097656-2.707031.675781-3.65625 1.625-2.503906 2.503906-2.050781 7.046875 1.03125 10.125 1.75 1.75 3.980469 2.65625 6.03125 2.65625 1.5625 0 3.011719-.542969 4.09375-1.625.949219-.949219 1.527344-2.214844 1.625-3.65625.089844-1.320312 1.046875-2.4375 2.3125-2.65625.78125-.136719 1.464844-.464844 2-1 1.207031-1.207031 1.582031-2.773437 1.0625-4.53125-.171875-.585937-.480469-1.183594-.84375-1.78125l-1.46875 1.46875c.15625.300781.289063.589844.375.875.308594 1.039063.144531 1.886719-.53125 2.5625-.242187.238281-.53125.371094-.90625.4375-2.164062.375-3.851562 2.273438-4 4.5-.0625.949219-.429687 1.769531-1.03125 2.375-1.726562 1.722656-4.980469 1.269531-7.28125-1.03125s-2.785156-5.589844-1.0625-7.3125c.605469-.601562 1.425781-.96875 2.375-1.03125 2.226563-.148437 4.121094-1.835937 4.5-4 .066406-.375.195313-.664062.4375-.90625.464844-.464844.996094-.6875 1.625-.6875.285156 0 .613281.058594.9375.15625.628906.1875 1.332031.558594 2 1.0625l-3.34375 3.34375c-.179687-.042969-.367187-.0625-.5625-.0625-1.378906 0-2.5 1.121094-2.5 2.5s1.121094 2.5 2.5 2.5 2.5-1.121094 2.5-2.5c0-.152344-.035156-.292969-.0625-.4375l9.09375-9.125c.214844.214844.441406.214844.65625 0l.75-.75.3125.3125.40625-.40625-.3125-.3125.4375-.4375.21875.4375.40625-.4375-.3125-.3125.75-.75c.214844-.214844.214844-.441406 0-.65625l-1.90625-1.90625c-.105469-.105469-.238281-.15625-.34375-.15625zm-.09375 1.21875.4375.4375-1.9375 1.90625-.40625-.40625zm.84375.75.4375.4375-1.9375 1.90625-.40625-.4375zm-18.25 14.65625-1.40625 1.40625 3.21875 3.21875 1.40625-1.40625z"/></svg>