<svg viewBox="0 0 14 14" xmlns="http://www.w3.org/2000/svg"><path d="m5.9969073 12.312375c-.2986609-.048-.8783415-.2811-1.1885332-.479-.1742322-.1111-.3310132-.2022-.3484044-.2022-.017401 0-.227916.1326-.4678528.2945l-.4362505.2943-.1408498-.2055c-.077506-.113-.1301692-.2145-.1171382-.2256.013001-.011.2040742-.1398.4245397-.2863l.400828-.2662-.2070145-.3283c-.1138679-.1806-.2518376-.4705-.3066014-.6442l-.099607-.3160001h-.3497445-.3497345v1.0220001 1.0221h-.2705389-.2705389v-1.0386-1.0385001l-.4498115-.072c-.2473973-.039-.5330273-.1146-.6347345-.1672l-.1849229-.096.035403-1.0338c.019401-.5685.050303-1.2547.068605-1.5249l.033202-.4911.2805696-.063c.1543108-.035.4090787-.081.5661397-.1018l.28557-.039-.002-1.6014-.002-1.6013-.3011811-.2045c-.3978879-.2699-.8981129-.8217-.8981129-.9908 0-.2925.2508676-.3458.8741312-.1856.9923395.255 2.2833499 1.123 2.4907844 1.6748.053304.1417.046703.1944-.035902.2856-.1759624.1944-.6677868.122-1.4803537-.2178-.098507-.041-.1052073.048-.1052073 1.4053v1.4493l.1653315.0009c.090906.0004.2261459.017.3004911.037.1230686.033.1319392.02.099107-.1439-.031702-.1585.098307-1.433.1937136-1.8991.1176382-.5745 1.9799886-.558 2.6831678.024.1329893.11.2258658.2403.2264659.3175.00089.1149.016001.1075.1238586-.061.1901133-.2969.5958217-.4644 1.1874531-.4904.8467893-.037 1.2728191.2152 1.2728191.7543 0 .2552.007.2656.1653316.2474l.1653316-.019.016801-.7966.016801-.7965-.3173722-.001c-.4102687-.001-1.129539-.1541-1.2384367-.263-.1703419-.1703.28526-.3398 1.1465103-.4263.2231956-.022.4058084-.066.4058084-.096 0-.073.5252668-.072.5510986 0 .011001.031.2587173.086.5504493.1225.532717.066 1.002639.2095 1.002639.3066 0 .1467-.766123.3557-1.303611.3557h-.259498v.7214c0 .8012-.026702.7594.435861.6829l.225456-.037v-.5934-.5933h.240477.240475v.573c0 .4074.0217.5791.07521.5938.0413.011.27553.052.520446.09.244917.038.637195.1136.871732.1681l.426439.099-.243657.073c-.134009.04-.560109.1345-.946886.2101l-.703229.1376v3.1463 3.1462001h-.240476-.240477v-3.1564001c0-2.9656-.006-3.1563-.105219-3.1569-.0579-.0004-.206654-.017-.330653-.038l-.225445-.037v.3084c0 .2625.017001.3086.113578.3086.0625 0 .171862.047.243097.1052.118729.096.128049.1528.111868.6763l-.0177.5712-.225446.1101-.225446.1102v2.2194 2.2195001h-.2602482c-.2232257 0-.3197224-.046-.6783675-.3248l-.4181193-.325-.2384567.1798c-.6778374.5107-1.5643195.7386-2.3727161.6101zm1.114618-.6536c.7369916-.1908 1.2703889-.6371 1.6132729-1.3501.1754023-.3649001.1879132-.4349001.1879132-1.0521001 0-.6173-.012601-.6881-.1894433-1.0613-.314372-.6634-.7668036-1.0314-1.5047053-1.2236-1.2067145-.3143-2.3520346.1929-2.8890222 1.2794-.2185453.4422-.2264059.4801-.2264059 1.0925 0 .5624.018301.6733001.1611313.9782001.500225 1.0672 1.7044593 1.6327 2.8472593 1.337zm2.3121719-.7941-.00003-.6462-.2300661.4509-.2300662.4508.2150751.1932c.1182783.1062.2218255.1941.2300961.1953.008.001.015001-.2885.015001-.644zm.00004-2.7504001c0-.2906-.014601-.3307-.1202385-.3307-.066105 0-.1202484.017-.1202484.037 0 .053.2054444.6243.2245357.6243.009 0 .016001-.1488.016001-.3307zm-4.899763-1.1123c.1056174-.1167.1050073-.1202-.020701-.1202-.089506 0-.129559.037-.129559.1202 0 .066.009.1203.020701.1203.011401 0 .069705-.054.1295591-.1203zm2.0414929-1.2428c-.067005-.8048-.1200884-.9144-.1696219-.3503-.023202.2645-.057904.5689-.077005.6764-.032102.1807-.022602.1953.127639.1953h.1623913l-.043403-.5214zm2.8582701.017c0-.2402-.024702-.3337-.095107-.3607-.1758923-.067-.2055044-.037-.2055044.2079 0 .283.086406.4771.2125349.4771.066405 0 .088106-.08.088106-.3243z"/></svg>